<svg width="114" height="33" viewBox="0 0 114 33" fill="none" xmlns="http://www.w3.org/2000/svg">
<path d="M5.42261 4.33856H11.2256L7.30329 26.7683H22.1106L21.2302 31.8151H0.621582L5.42261 4.33856Z" fill="black"/>
<path d="M32.0346 32.2146C30.4605 32.2146 29.1725 31.8134 28.1722 31.0128C27.1719 30.2123 26.6718 29.038 26.6718 27.4883V15.6323L24.1111 14.3911V13.75H30.4348V25.6454C30.4348 26.7666 30.7757 27.622 31.4557 28.2083C32.1357 28.7963 33.0229 29.0894 34.1174 29.0894C34.7837 29.0894 35.5185 28.9763 36.3184 28.7483C37.1183 28.522 37.7589 28.1808 38.2385 27.7266V15.6306L35.5168 14.3894V13.7483H42.0392V30.01L44.8003 31.1723V31.8134H38.2367V29.29H38.0364C37.0498 30.2774 36.0889 31.0128 35.1554 31.4928C34.2219 31.9746 33.1822 32.2146 32.0346 32.2146Z" fill="black"/>
<path d="M75.8555 31.8151H70.652V15.9939H64.0491V31.8151H58.8472V15.9939H52.2443V31.8151H47.0425V11.1871H75.8555V31.8151Z" fill="black"/>
<path d="M80.4167 31.8152V31.174L82.9774 29.8917V17.9157L80.5366 15.9134V15.5929L86.0588 13.3506H86.3397L86.6994 16.3146H86.8998C87.9137 15.3272 88.8866 14.5866 89.8218 14.0912C90.7553 13.5974 91.8087 13.3506 92.9837 13.3506C94.5303 13.3506 95.8184 13.7449 96.8461 14.5317C97.872 15.3203 98.3876 16.5014 98.3876 18.0769V29.8917L100.909 31.174V31.8152H91.9423V31.174L94.5834 29.8917V19.918C94.5834 18.7694 94.2357 17.9089 93.5438 17.3346C92.8501 16.7603 91.956 16.474 90.8632 16.474C90.1952 16.474 89.4621 16.5803 88.6622 16.7946C87.8624 17.0089 87.2218 17.3414 86.7422 17.7957V29.8917L89.3833 31.174V31.8152H80.4167Z" fill="black"/>
<path d="M108.072 6.3717C107.328 6.3717 106.633 6.29285 105.98 6.13685C105.33 5.98085 104.766 5.76485 104.29 5.49228C103.814 5.21799 103.437 4.88542 103.156 4.49456C102.875 4.1037 102.736 3.67342 102.736 3.2037C102.736 2.68256 102.873 2.22313 103.147 1.82542C103.421 1.4277 103.798 1.09856 104.281 0.837988C104.763 0.577417 105.33 0.381989 105.982 0.251703C106.633 0.121417 107.337 0.0562744 108.092 0.0562744C108.848 0.0562744 109.555 0.121417 110.213 0.251703C110.87 0.381989 111.441 0.577417 111.922 0.837988C112.403 1.09856 112.782 1.4277 113.056 1.82542C113.33 2.22313 113.467 2.68256 113.467 3.2037C113.467 3.67342 113.327 4.1037 113.047 4.49456C112.767 4.88542 112.386 5.21799 111.905 5.49228C111.424 5.76656 110.853 5.98085 110.196 6.13685C109.533 6.29285 108.827 6.3717 108.072 6.3717ZM103.831 10.7123H112.272V31.8134H103.831V10.7123Z" fill="black"/>
</svg>
